<svg xmlns="http://www.w3.org/2000/svg" xmlns:xlink="http://www.w3.org/1999/xlink" width="500" zoomAndPan="magnify" viewBox="0 0 375 374.999991" height="500" preserveAspectRatio="xMidYMid meet" version="1.0"><defs><clipPath id="41ac70f4e4"><path d="M 211 217 L 359 217 L 359 363.808594 L 211 363.808594 Z M 211 217 " clip-rule="nonzero"/></clipPath><clipPath id="7f83317791"><path d="M 70 10.558594 L 232 10.558594 L 232 201 L 70 201 Z M 70 10.558594 " clip-rule="nonzero"/></clipPath></defs><g clip-path="url(#41ac70f4e4)"><path fill="#100f0d" d="M 284.777344 225.269531 C 248.800781 225.269531 219.527344 254.507812 219.527344 290.441406 C 219.527344 326.375 248.800781 355.613281 284.777344 355.613281 C 320.765625 355.613281 350.027344 326.375 350.027344 290.441406 C 350.027344 254.507812 320.765625 225.269531 284.777344 225.269531 Z M 284.777344 363.808594 C 244.285156 363.808594 211.335938 330.898438 211.335938 290.441406 C 211.335938 249.984375 244.285156 217.074219 284.777344 217.074219 C 325.28125 217.074219 358.230469 249.984375 358.230469 290.441406 C 358.230469 330.898438 325.28125 363.808594 284.777344 363.808594 " fill-opacity="1" fill-rule="nonzero"/></g><path fill="#100f0d" d="M 149.925781 344.203125 C 105.59375 344.203125 61.71875 334.804688 20.617188 316.285156 L 19.320312 315.707031 C 17.855469 315.042969 16.914062 313.582031 16.914062 311.980469 L 16.914062 280.066406 C 16.914062 257.449219 26.863281 236.117188 44.199219 221.570312 L 101.144531 173.800781 C 102.875 172.351562 105.46875 172.570312 106.921875 174.3125 C 108.386719 176.035156 108.152344 178.628906 106.421875 180.078125 L 49.476562 227.851562 C 33.992188 240.835938 25.121094 259.878906 25.121094 280.066406 L 25.121094 309.332031 C 82.925781 335.082031 146.292969 342.367188 208.476562 330.390625 C 210.699219 329.960938 212.855469 331.410156 213.285156 333.632812 C 213.710938 335.855469 212.246094 338.007812 210.023438 338.433594 C 190.046875 342.285156 169.933594 344.203125 149.925781 344.203125 " fill-opacity="1" fill-rule="nonzero"/><path fill="#100f0d" d="M 241.976562 218.410156 C 241.023438 218.410156 240.085938 218.082031 239.3125 217.417969 L 195.585938 180.050781 C 193.875 178.589844 193.667969 175.992188 195.144531 174.269531 C 196.609375 172.558594 199.207031 172.351562 200.933594 173.828125 L 244.644531 211.195312 C 246.355469 212.65625 246.5625 215.25 245.085938 216.976562 C 244.285156 217.914062 243.125 218.410156 241.976562 218.410156 " fill-opacity="1" fill-rule="nonzero"/><g clip-path="url(#7f83317791)"><path fill="#100f0d" d="M 151.03125 18.757812 C 111.203125 18.757812 78.808594 57.695312 78.808594 105.566406 C 78.808594 153.417969 111.203125 192.359375 151.03125 192.359375 C 190.863281 192.359375 223.257812 153.417969 223.257812 105.566406 C 223.257812 57.695312 190.863281 18.757812 151.03125 18.757812 Z M 151.03125 200.554688 C 106.6875 200.554688 70.601562 157.945312 70.601562 105.566406 C 70.601562 53.171875 106.6875 10.558594 151.03125 10.558594 C 195.378906 10.558594 231.464844 53.171875 231.464844 105.566406 C 231.464844 157.945312 195.378906 200.554688 151.03125 200.554688 " fill-opacity="1" fill-rule="nonzero"/></g><path fill="#100f0d" d="M 284.777344 322.371094 C 282.511719 322.371094 280.6875 320.535156 280.6875 318.273438 L 280.6875 257.78125 C 280.6875 255.515625 282.511719 253.679688 284.777344 253.679688 C 287.054688 253.679688 288.894531 255.515625 288.894531 257.78125 L 288.894531 318.273438 C 288.894531 320.535156 287.054688 322.371094 284.777344 322.371094 " fill-opacity="1" fill-rule="nonzero"/><path fill="#100f0d" d="M 315.058594 292.125 L 254.507812 292.125 C 252.242188 292.125 250.40625 290.289062 250.40625 288.027344 C 250.40625 285.765625 252.242188 283.929688 254.507812 283.929688 L 315.058594 283.929688 C 317.324219 283.929688 319.164062 285.765625 319.164062 288.027344 C 319.164062 290.289062 317.324219 292.125 315.058594 292.125 " fill-opacity="1" fill-rule="nonzero"/></svg>