<svg xmlns="http://www.w3.org/2000/svg" xmlns:xlink="http://www.w3.org/1999/xlink" width="500" zoomAndPan="magnify" viewBox="0 0 375 374.999991" height="500" preserveAspectRatio="xMidYMid meet" version="1.0"><defs><clipPath id="5836282ca3"><path d="M 57 13.378906 L 287 13.378906 L 287 101 L 57 101 Z M 57 13.378906 " clip-rule="nonzero"/></clipPath><clipPath id="0b98caab5d"><path d="M 200 214 L 344.144531 214 L 344.144531 359 L 200 359 Z M 200 214 " clip-rule="nonzero"/></clipPath><clipPath id="39f84ee00e"><path d="M 28.394531 214 L 203 214 L 203 359 L 28.394531 359 Z M 28.394531 214 " clip-rule="nonzero"/></clipPath></defs><g clip-path="url(#5836282ca3)"><path fill="#000000" d="M 172.125 13.851562 L 57.257812 56.953125 L 172.125 100.050781 L 286.996094 56.953125 Z M 172.125 13.851562 " fill-opacity="1" fill-rule="nonzero"/></g><g clip-path="url(#0b98caab5d)"><path fill="#000000" d="M 272.636719 214.984375 C 232.980469 214.984375 200.84375 247.140625 200.84375 286.8125 C 200.84375 326.496094 232.980469 358.652344 272.636719 358.652344 C 312.300781 358.652344 344.4375 326.496094 344.4375 286.8125 C 344.4375 247.140625 312.300781 214.984375 272.636719 214.984375 Z M 315.71875 297.589844 L 283.40625 297.589844 L 283.40625 329.917969 L 261.871094 329.917969 L 261.871094 297.589844 L 229.5625 297.589844 L 229.5625 276.039062 L 261.871094 276.039062 L 261.871094 243.714844 L 283.40625 243.714844 L 283.40625 276.039062 L 315.71875 276.039062 Z M 315.71875 297.589844 " fill-opacity="1" fill-rule="nonzero"/></g><path fill="#000000" d="M 172.125 130.738281 L 114.691406 109.1875 L 114.691406 128.785156 C 114.691406 160.519531 140.40625 186.253906 172.125 186.253906 C 203.84375 186.253906 229.5625 160.519531 229.5625 128.785156 L 229.5625 109.1875 Z M 172.125 130.738281 " fill-opacity="1" fill-rule="nonzero"/><g clip-path="url(#39f84ee00e)"><path fill="#000000" d="M 172.125 286.8125 C 172.125 258.671875 183.71875 233.25 202.359375 214.984375 L 100.332031 214.984375 C 76.640625 214.984375 53.453125 234.007812 48.804688 257.242188 L 28.539062 358.652344 L 202.359375 358.652344 C 183.71875 340.417969 172.125 314.992188 172.125 286.8125 Z M 172.125 286.8125 " fill-opacity="1" fill-rule="nonzero"/></g></svg>